# xmcd
#
# Track frame offsets:
#	150
#	19674
#	37954
#	54792
#	75815
#	93437
#	111402
#	131034
#	150576
#	164934
#	182352
#	201686
#	222454
#	244474
#	261679
#	281820
#	299379
#
# Disc length: 4384 seconds
#
# Revision: 0
# Processed by: cddbd v1.5.2PL0 Copyright (c) Steve Scherf et al.
# Submitted via: EasyCDDAExtractor 11.5.0.1
#
DISCID=04111e11
DTITLE=Чай вдвоём - 10000 слов о любви
DYEAR=2004
DGENRE=Pop
TTITLE0=Милая
TTITLE1=Желанная
TTITLE2=День рождения
TTITLE3=Любила не меня
TTITLE4=Не первая любовь
TTITLE5=Милый, постой
TTITLE6=Мой родной сынок
TTITLE7=Белая ночь
TTITLE8=А ты всё ждёшь
TTITLE9=Я тебя не вижу (Remix Dj Shuri, Dj Tisha)
TTITLE10=Он не разлюбит
TTITLE11=Возвращайся
TTITLE12=Летний дождь
TTITLE13=Желанная (Kolya Smart pres. Radius remix)
TTITLE14=День рождения (Kolya Smart pres. Radius remix)
TTITLE15=День рождения (Remix Dj Skydrimer)
TTITLE16=День рождения (Remix Skydrimer Brothers Hypnotis mix)
EXTD=
EXTT0=
EXTT1=
EXTT2=
EXTT3=
EXTT4=
EXTT5=
EXTT6=
EXTT7=
EXTT8=
EXTT9=
EXTT10=
EXTT11=
EXTT12=
EXTT13=
EXTT14=
EXTT15=
EXTT16=
PLAYORDER=
